<svg width="77" height="16" viewBox="0 0 77 16" fill="none" xmlns="http://www.w3.org/2000/svg">
<path d="M0.427113 12.768H3.17287V9.02381H5.25894C8.05819 9.02381 10.3047 7.54395 10.3047 4.63772V4.60206C10.3047 2.03459 8.50393 0.287292 5.52638 0.287292H0.427113V12.768ZM3.17287 6.58115V2.76561H5.2946C6.66748 2.76561 7.5233 3.4253 7.5233 4.65555V4.69121C7.5233 5.76099 6.72097 6.58115 5.34809 6.58115H3.17287Z" fill="#00344E"/>
<path d="M14.5874 12.9463C15.9247 12.9463 16.8161 12.4649 17.4758 11.7339V12.768H20.0968V7.22301C20.0968 5.93928 19.7759 4.88733 19.0627 4.17415C18.3673 3.47879 17.3332 3.10437 15.8355 3.10437C14.213 3.10437 13.1789 3.42531 12.127 3.87105L12.8045 5.93928C13.6781 5.60052 14.3913 5.42222 15.4433 5.42222C16.7983 5.42222 17.4937 6.02843 17.4937 7.16952V7.32999C16.7983 7.09821 16.1386 6.93774 15.158 6.93774C12.8936 6.93774 11.3068 7.91837 11.3068 9.9866V10.0223C11.3068 11.93 12.7867 12.9463 14.5874 12.9463ZM15.4076 11.0742C14.534 11.0742 13.9278 10.6463 13.9278 9.91529V9.87963C13.9278 9.0238 14.6409 8.56024 15.7999 8.56024C16.4596 8.56024 17.0479 8.70287 17.5293 8.91683V9.39823C17.5293 10.3967 16.6913 11.0742 15.4076 11.0742Z" fill="#00344E"/>
<path d="M26.2706 9.71916L24.0954 3.21135H21.2248L24.969 12.8037C24.7372 13.2851 24.5054 13.4277 24.024 13.4277C23.6675 13.4277 23.2217 13.2673 22.8651 13.0533L21.9558 15.0146C22.6512 15.4246 23.3644 15.6743 24.3628 15.6743C25.9675 15.6743 26.7876 14.9432 27.5008 12.9998L31.1737 3.21135H28.3566L26.2706 9.71916Z" fill="#00344E"/>
<path d="M33.0567 12.768H35.749V4.67338L39.2257 9.95094H39.2971L42.8095 4.61989V12.768H45.5374V0.287292H42.5777L39.2971 5.56486L36.0164 0.287292H33.0567V12.768Z" fill="#00344E"/>
<path d="M50.9606 12.9463C52.2978 12.9463 53.1893 12.4649 53.8489 11.7339V12.768H56.4699V7.22301C56.4699 5.93928 56.149 4.88733 55.4358 4.17415C54.7404 3.47879 53.7063 3.10437 52.2086 3.10437C50.5861 3.10437 49.552 3.42531 48.5001 3.87105L49.1776 5.93928C50.0512 5.60052 50.7644 5.42222 51.8164 5.42222C53.1714 5.42222 53.8668 6.02843 53.8668 7.16952V7.32999C53.1714 7.09821 52.5117 6.93774 51.5311 6.93774C49.2667 6.93774 47.6799 7.91837 47.6799 9.9866V10.0223C47.6799 11.93 49.1598 12.9463 50.9606 12.9463ZM51.7807 11.0742C50.9071 11.0742 50.3009 10.6463 50.3009 9.91529V9.87963C50.3009 9.0238 51.014 8.56024 52.173 8.56024C52.8327 8.56024 53.421 8.70287 53.9024 8.91683V9.39823C53.9024 10.3967 53.0644 11.0742 51.7807 11.0742Z" fill="#00344E"/>
<path d="M62.6437 9.71916L60.4685 3.21135H57.5979L61.3421 12.8037C61.1103 13.2851 60.8786 13.4277 60.3971 13.4277C60.0406 13.4277 59.5948 13.2673 59.2382 13.0533L58.3289 15.0146C59.0243 15.4246 59.7375 15.6743 60.7359 15.6743C62.3406 15.6743 63.1607 14.9432 63.8739 12.9998L67.5468 3.21135H64.7297L62.6437 9.71916Z" fill="#00344E"/>
<path d="M71.4019 12.9463C72.7391 12.9463 73.6306 12.4649 74.2903 11.7339V12.768H76.9113V7.22301C76.9113 5.93928 76.5903 4.88733 75.8772 4.17415C75.1818 3.47879 74.1477 3.10437 72.65 3.10437C71.0275 3.10437 69.9934 3.42531 68.9414 3.87105L69.619 5.93928C70.4926 5.60052 71.2058 5.42222 72.2577 5.42222C73.6128 5.42222 74.3081 6.02843 74.3081 7.16952V7.32999C73.6128 7.09821 72.9531 6.93774 71.9725 6.93774C69.7081 6.93774 68.1213 7.91837 68.1213 9.9866V10.0223C68.1213 11.93 69.6011 12.9463 71.4019 12.9463ZM72.2221 11.0742C71.3484 11.0742 70.7422 10.6463 70.7422 9.91529V9.87963C70.7422 9.0238 71.4554 8.56024 72.6143 8.56024C73.274 8.56024 73.8624 8.70287 74.3438 8.91683V9.39823C74.3438 10.3967 73.5058 11.0742 72.2221 11.0742Z" fill="#00344E"/>
</svg>
