<svg width="359" height="353" viewBox="0 0 359 353" fill="none" xmlns="http://www.w3.org/2000/svg">
<path d="M111.5 182V153.5L358.5 0L111.5 182Z" fill="#FF4949"/>
<path d="M16.5 106.5L31 94L127 144L111.5 153.5L16.5 106.5Z" fill="white"/>
<path d="M111.5 153.5L112.5 353L0 248.5V98L111.5 153.5Z" fill="#3482FF"/>
<path d="M111.5 182V210.5L358.5 0L111.5 182Z" fill="#FFB435"/>
<path d="M132.5 140.5L127 144L31 94L24 100.039V84L132.5 140.5Z" fill="#3482FF"/>
<path d="M111.5 238.5V210.5L358.5 0L111.5 238.5Z" fill="#FFEB33"/>
<path d="M111.5 269.5V238.5L358.5 0L111.5 269.5Z" fill="#7DC85C"/>
<path d="M111.5 269.5L112 310L358.5 0L111.5 269.5Z" fill="#3757E5"/>
<path d="M112 310L112.5 353L358.5 0L112 310Z" fill="#4B0082"/>
</svg>
