<svg width="156" height="156" viewBox="0 0 156 156" fill="none" xmlns="http://www.w3.org/2000/svg">
<circle cx="78" cy="78" r="78" fill="#EE6369"/>
<mask id="mask0_3920_3226" style="mask-type:alpha" maskUnits="userSpaceOnUse" x="34" y="51" width="88" height="105">
<path d="M102.206 92.1346C100.329 105.336 86.467 106.521 78.1739 106.521C68.8268 106.521 58.8799 107.197 53.1243 93.6578C47.3711 59.6395 67.3422 49.4847 79.0189 51.1772C88.366 51.1772 106.944 58.7932 102.206 92.1346Z" fill="#D9D9D9"/>
<path fill-rule="evenodd" clip-rule="evenodd" d="M121.467 155.94C121.489 155.549 121.5 155.154 121.5 154.755C121.5 135.874 100.514 113.121 77.6654 114.983C54.3095 114.983 34 135.874 34 154.755C34 155.154 34.0111 155.549 34.0329 155.94H121.467Z" fill="#D9D9D9"/>
</mask>
<g mask="url(#mask0_3920_3226)">
<circle cx="78" cy="79" r="78" fill="#D9D9D9"/>
</g>
</svg>
